<?xml version="1.0" encoding="UTF-8"?><!DOCTYPE svg PUBLIC "-//W3C//DTD SVG 1.1//EN" "http://www.w3.org/Graphics/SVG/1.1/DTD/svg11.dtd"><svg xmlns="http://www.w3.org/2000/svg" xml:space="preserve" width="400px" height="400px" version="1.1" style="shape-rendering:geometricPrecision; text-rendering:geometricPrecision; image-rendering:optimizeQuality; fill-rule:evenodd; clip-rule:evenodd" viewBox="0 0 400 400"><g><path class="fil0" d="M199.76 26.74c94.59,0 171.37,76.79 171.37,171.38 0,94.58 -76.78,171.37 -171.37,171.37 -94.58,0 -171.37,-76.79 -171.37,-171.37 0,-94.59 76.79,-171.38 171.37,-171.38zm0 57.13c63.06,0 114.25,51.19 114.25,114.25 0,63.05 -51.19,114.25 -114.25,114.25 -63.05,0 -114.25,-51.2 -114.25,-114.25 0,-63.06 51.2,-114.25 114.25,-114.25z"/><path class="fil0" d="M186.72 212.06c4.82,-4.83 11.37,-7.54 18.2,-7.54 6.83,0 13.38,2.71 18.2,7.54 36.79,36.79 118.9,118.89 147.43,147.43 1.68,1.68 2.18,4.19 1.27,6.38 -0.91,2.19 -3.04,3.62 -5.41,3.62 -16.53,0 -42.99,0 -53.82,0 -3.11,0 -6.09,-1.23 -8.29,-3.43 -16.06,-16.06 -84.41,-84.42 -117.58,-117.59 -4.83,-4.83 -7.55,-11.38 -7.55,-18.2 0,-6.83 2.72,-13.38 7.55,-18.21 0,0 0,0 0,0z"/></g></svg>
